<?xml version="1.0" encoding="utf-8"?>
<!-- Generator: Adobe Illustrator 21.1.0, SVG Export Plug-In . SVG Version: 6.00 Build 0)  -->
<svg version="1.1" id="Layer_1" xmlns="http://www.w3.org/2000/svg" xmlns:xlink="http://www.w3.org/1999/xlink" x="0px" y="0px"
	 viewBox="0 0 54 54" style="enable-background:new 0 0 54 54;" xml:space="preserve">
<style type="text/css">
	.st0{fill:none;}
	.cls-1 {
		fill: #FFF;
		fill-rule: evenodd;
	}
</style>
<g>
	<rect x="-0.2" y="0.1" class="st0" width="53.8" height="53.4"/>
	<path class="cls-1" d="M40,4.8c2.2,0,4.1,0.8,5.7,2.4c1.6,1.6,2.4,3.5,2.4,5.7v26.8c0,2.2-0.8,4.1-2.4,5.7c-1.6,1.6-3.5,2.4-5.7,2.4H13.3
		c-2.2,0-4.1-0.8-5.7-2.4c-1.6-1.6-2.4-3.5-2.4-5.7V12.9c0-2.2,0.8-4.1,2.4-5.7c1.6-1.6,3.5-2.4,5.7-2.4H40z M23,30.4
		c1.2-1.2,1.7-2.5,1.7-4.2s-0.6-3-1.7-4.2c-1.2-1.2-2.5-1.7-4.2-1.7s-3,0.6-4.2,1.7c-1.2,1.2-1.7,2.5-1.7,4.2s0.6,3,1.7,4.2
		s2.5,1.7,4.2,1.7S21.8,31.6,23,30.4z M38.7,30.4c1.2-1.2,1.7-2.5,1.7-4.2s-0.6-3-1.7-4.2c-1.2-1.2-2.5-1.7-4.2-1.7
		c-1.6,0-3,0.6-4.2,1.7c-1.2,1.2-1.7,2.5-1.7,4.2s0.6,3,1.7,4.2c1.2,1.2,2.5,1.7,4.2,1.7C36.1,32.2,37.5,31.6,38.7,30.4z"/>
</g>
</svg>
